<svg xmlns="http://www.w3.org/2000/svg" viewBox="0 0 216 89" width="216" height="89">
	<style>
		tspan { white-space:pre }
		.shp0 { fill: #f3f7ff } 
		.shp1 { fill: #ffffff;stroke: #75a4fe;stroke-linecap:round;stroke-width: 2.5 } 
		.shp2 { fill: none;stroke: #a4c3fe;stroke-linecap:round;stroke-width: 2.5 } 
		.shp3 { fill: none;stroke: #75a4fe;stroke-linecap:round;stroke-width: 2.5 } 
		.shp4 { fill: #75a4fe } 
	</style>
	<g id="Page 1">
		<g id="-e-NoConnection">
			<path id="Background" class="shp0" d="M46 80C42.13 80 39 76.87 39 73C39 69.13 42.13 66 46 66L7 66C3.13 66 0 62.87 0 59C0 55.13 3.13 52 7 52L47 52C50.87 52 54 48.87 54 45C54 41.13 50.87 38 47 38L22 38C18.13 38 15 34.87 15 31C15 27.13 18.13 24 22 24L62 24C58.13 24 55 20.87 55 17C55 13.13 58.13 10 62 10L119 10C122.87 10 126 13.13 126 17C126 20.87 122.87 24 119 24L183 24C186.87 24 190 27.13 190 31C190 34.87 186.87 38 183 38L205 38C208.87 38 212 41.13 212 45C212 48.87 208.87 52 205 52L186 52C182.13 52 179 55.13 179 59C179 62.87 182.13 66 186 66L192 66C195.87 66 199 69.13 199 73C199 76.87 195.87 80 192 80L46 80ZM209 80C205.13 80 202 76.87 202 73C202 69.13 205.13 66 209 66C212.87 66 216 69.13 216 73C216 76.87 212.87 80 209 80Z" />
			<path id="Shape" fill-rule="evenodd" class="shp1" d="M75 86C62.85 86 53 76.37 53 64.5C53 52.63 62.85 43 75 43C75.52 43 76.03 43.02 76.54 43.05C76.18 41.09 76 39.07 76 37C76 18.22 91.22 3 110 3C124.99 3 137.72 12.7 142.24 26.17C143.31 26.06 144.4 26 145.5 26C162.34 26 176 39.43 176 56C176 71.74 163.68 84.73 148 85.98L148 86L91.51 86M87 86L80.03 86" />
			<path id="Oval" class="shp2" d="M126.72 28.29C123 28.29 120 25.32 120 21.65C120 17.97 123 15 126.72 15C130.44 15 133.44 17.97 133.44 21.65C133.44 25.32 130.44 28.29 126.72 28.29Z" />
			<path id="Oval" class="shp3" d="M91 47C91 50.87 94.13 54 98 54C101.87 54 105 50.87 105 47" />
			<path id="Oval" class="shp3" d="M120 47C120 50.87 123.13 54 127 54C130.87 54 134 50.87 134 47" />
			<path id="Line" class="shp3" d="M105 66L119.5 66" />
			<path id="Zz" class="shp4" d="M40.21 6.29L52.16 6.29L52.16 8.38L43 19.62L52.38 19.62L52.38 22L39.51 22L39.51 19.76L48.66 8.67L40.21 8.67L40.21 6.29ZM56.88 21.58L65.57 21.58L65.57 23.1L58.91 31.27L65.73 31.27L65.73 33L56.37 33L56.37 31.37L63.02 23.3L56.88 23.3L56.88 21.58Z" />
		</g>
	</g>
</svg>