<svg xmlns="http://www.w3.org/2000/svg" viewBox="0 0 167 105" width="167" height="105">
	<style>
		tspan { white-space:pre }
		.shp0 { fill: #f3f7ff } 
		.shp1 { fill: #ffffff;stroke: #75a4fe;stroke-linecap:round;stroke-width: 2.5 } 
		.shp2 { fill: #e8f0fe } 
		.shp3 { fill: #ffffff;stroke: #75a4fe;stroke-width: 2.5 } 
		.shp4 { fill: none;stroke: #75a4fe;stroke-linecap:round;stroke-linejoin:round;stroke-width: 2.5 } 
		.shp5 { fill: none;stroke: #a4c3fe;stroke-linecap:round;stroke-linejoin:round;stroke-width: 2.5 } 
	</style>
	<g id="Page 1">
		<g id="NoDocuments">
			<path id="Background" class="shp0" d="M129 86L46 86C42.13 86 39 82.87 39 79C39 75.13 42.13 72 46 72L7 72C3.13 72 0 68.87 0 65C0 61.13 3.13 58 7 58L47 58C50.87 58 54 54.87 54 51C54 47.13 50.87 44 47 44L22 44C18.13 44 15 40.87 15 37C15 33.13 18.13 30 22 30L62 30C58.13 30 55 26.87 55 23C55 19.13 58.13 16 62 16L160 16C163.87 16 167 19.13 167 23C167 26.87 163.87 30 160 30L120 30C123.87 30 127 33.13 127 37C127 40.87 123.87 44 120 44L142 44C145.87 44 149 47.13 149 51C149 54.87 145.87 58 142 58L131.83 58C126.95 58 123 61.13 123 65C123 68.87 129 72 129 72C132.87 72 136 75.13 136 79C136 82.87 132.87 86 129 86ZM160 58C156.13 58 153 54.87 153 51C153 47.13 156.13 44 160 44C163.87 44 167 47.13 167 51C167 54.87 163.87 58 160 58Z" />
			<path id="Shape" fill-rule="evenodd" class="shp1" d="M106.67 15L115.97 82.84L116.81 89.65C117.08 91.84 115.52 93.84 113.33 94.11L54.77 101.3C52.57 101.57 50.58 100.01 50.31 97.81L41.29 24.39C41.16 23.29 41.94 22.29 43.03 22.16C43.04 22.16 43.05 22.16 43.06 22.16L47.91 21.61M51.84 21.17L56.43 20.66" />
			<path id="Rectangle" class="shp2" d="M104.14 19.27L112.56 80.75L113.32 86.92C113.56 88.91 112.17 90.71 110.2 90.96L57.76 97.39C55.8 97.64 54.01 96.22 53.76 94.23L45.61 27.86C45.48 26.76 46.26 25.76 47.36 25.63L53.84 24.83" />
			<path id="Rectangle" class="shp3" d="M63.67 1L106.88 1C109.1 1 112.15 2.26 113.71 3.83L123.84 13.95C125.41 15.51 126.67 18.57 126.67 20.78L126.67 81C126.67 83.21 124.88 85 122.67 85L63.67 85C61.46 85 59.67 83.21 59.67 81L59.67 5C59.67 2.79 61.46 1 63.67 1Z" />
			<path id="Shape" class="shp4" d="M109.67 3.4L109.67 15C109.67 16.66 111.01 18 112.67 18L120.61 18" />
			<path id="lines" class="shp5" d="M71.67 18L97.67 18M71.67 30L114.67 30M71.67 43L114.67 43M71.67 56L114.67 56M71.67 69L97.67 69" />
		</g>
	</g>
</svg>